<?xml version="1.0" encoding="UTF-8"?>
<svg width="61px" height="60px" viewBox="0 0 61 60" version="1.1" xmlns="http://www.w3.org/2000/svg" xmlns:xlink="http://www.w3.org/1999/xlink">
    <title>83338852-A2CA-484A-85A9-5C70156DFF32@2x</title>
    <g id="04-About" stroke="none" stroke-width="1" fill="none" fill-rule="evenodd">
        <g id="L-04.02-B" transform="translate(-608.000000, -2165.000000)" fill-rule="nonzero">
            <g id="Group-12" transform="translate(208.000000, 1941.000000)">
                <g id="Group-7" transform="translate(0.000000, 204.000000)">
                    <g id="Group-23" transform="translate(350.000000, 0.000000)">
                        <g id="Group-22" transform="translate(-0.000000, 0.000000)">
                            <g id="Threema-App-Icon" transform="translate(50.500000, 20.000000)">
                                <rect id="BG" fill="#323232" x="0" y="0" width="60" height="60" rx="2.9296875"></rect>
                                <path d="M21.5521489,40.3590331 L11.8945312,42.7734375 L13.9584877,34.5176116 C11.9144046,31.8249196 10.7226562,28.5886352 10.7226562,25.1074219 C10.7226562,15.7390761 19.353417,8.14453125 30,8.14453125 C40.646583,8.14453125 49.2773438,15.7390761 49.2773438,25.1074219 C49.2773438,34.4757677 40.646583,42.0703125 30,42.0703125 C26.969938,42.0703125 24.1031566,41.4551579 21.5521489,40.3590331 L21.5521489,40.3590331 Z M24.53125,23.6993019 L24.3164062,23.6993019 C23.8309997,23.6993019 23.4375,24.0928016 23.4375,24.5782081 L23.4375,32.2851562 C23.4375,32.7705628 23.8309997,33.1640625 24.3164062,33.1640625 L35.6835938,33.1640625 C36.1690003,33.1640625 36.5625,32.7705628 36.5625,32.2851562 L36.5625,24.5782081 C36.5625,24.0928016 36.1690003,23.6993019 35.6835938,23.6993019 L35.46875,23.6993019 L35.46875,21.5151263 C35.46875,18.5021616 33.0220354,16.0546875 29.9974373,16.0546875 C26.9779646,16.0546875 24.53125,18.5021616 24.53125,21.5151263 L24.53125,23.6993019 Z M33.28125,23.6993019 L26.71875,23.6993019 L26.71875,21.5155102 C26.71875,19.7077313 28.1867788,18.238863 29.9984624,18.238863 C31.8132212,18.238863 33.28125,19.7077313 33.28125,21.5155102 C33.28125,22.722999 33.28125,23.4509295 33.28125,23.6993019 Z" id="Shape" fill="#FFFFFF"></path>
                                <path d="M33.2783918,49.6869236 C33.2783918,51.5003825 31.8110024,52.96875 29.9970339,52.96875 C28.1861394,52.96875 26.71875,51.5003825 26.71875,49.6869236 C26.71875,47.8769233 28.1861394,46.40625 29.9970339,46.40625 C31.8110024,46.40625 33.2783918,47.8769233 33.2783918,49.6869236 Z M21.4453125,49.6869236 C21.4453125,51.5003825 19.9779231,52.96875 18.1639547,52.96875 C16.3530601,52.96875 14.8856707,51.5003825 14.8856707,49.6869236 C14.8856707,47.8769233 16.3530601,46.40625 18.1639547,46.40625 C19.9779231,46.40625 21.4453125,47.8769233 21.4453125,49.6869236 Z M45.111471,49.6869236 C45.111471,51.5003825 43.6440816,52.96875 41.8301132,52.96875 C40.0192187,52.96875 38.5518293,51.5003825 38.5518293,49.6869236 C38.5518293,47.8769233 40.0192187,46.40625 41.8301132,46.40625 C43.6440816,46.40625 45.111471,47.8769233 45.111471,49.6869236 Z" id="Dots" fill="#05A63F"></path>
                            </g>
                        </g>
                    </g>
                </g>
            </g>
        </g>
    </g>
</svg>